# xmcd
# 
# Track frame offsets:
#     150
#     15935
#     41442
#     58495
# 
# Disc length: 1019
# 
# Revision: 0
# Processed by: cddbd v1.5.2PL0 Copyright (c) Steve Scherf et al.
# Submitted via: BonkEnc v1.0.8
# 
DISCID=2a03f904
DTITLE=Cutty Ranks - Armed And Dangerous
DYEAR=1994
DGENRE=Rap
TTITLE0=Armed And Dangerous (Radio Edit)
TTITLE1=Armed And Dangerous (Beef Base Mix)
TTITLE2=Armed And Dangerous (Remix)
TTITLE3=Armed And Dangerous (Original Mix)
EXTD=
EXTT0=
EXTT1=
EXTT2=
EXTT3=
PLAYORDER=
